<mxfile host="app.diagrams.net" modified="2022-01-17T05:32:22.740Z" agent="5.0 (Macintosh; Intel Mac OS X 10_15_7) AppleWebKit/537.36 (KHTML, like Gecko) Chrome/97.0.4692.71 Safari/537.36" etag="x8JMBJtOXcpqpMATS_G_" version="14.4.9" type="github">
  <diagram id="GCbj6qEZZx6PM13zVxRF" name="第 1 页">
    <mxGraphModel dx="1593" dy="429" grid="1" gridSize="10" guides="1" tooltips="1" connect="1" arrows="1" fold="1" page="1" pageScale="1" pageWidth="850" pageHeight="1100" math="0" shadow="0">
      <root>
        <mxCell id="0" />
        <mxCell id="1" parent="0" />
        <mxCell id="VnJmP2dUm73nQAp3kCWq-1" style="edgeStyle=orthogonalEdgeStyle;rounded=0;orthogonalLoop=1;jettySize=auto;html=1;exitX=0.5;exitY=1;exitDx=0;exitDy=0;entryX=0.5;entryY=0;entryDx=0;entryDy=0;entryPerimeter=0;" parent="1" source="VnJmP2dUm73nQAp3kCWq-2" target="VnJmP2dUm73nQAp3kCWq-11" edge="1">
          <mxGeometry relative="1" as="geometry">
            <mxPoint x="280" y="250" as="targetPoint" />
          </mxGeometry>
        </mxCell>
        <mxCell id="VnJmP2dUm73nQAp3kCWq-2" value="获取当日公众号列表" style="shape=parallelogram;html=1;strokeWidth=2;perimeter=parallelogramPerimeter;whiteSpace=wrap;rounded=1;arcSize=12;size=0.23;" parent="1" vertex="1">
          <mxGeometry x="230" y="130" width="100" height="60" as="geometry" />
        </mxCell>
        <mxCell id="4c2e-EeaPmxIaRiaBZTg-19" style="edgeStyle=orthogonalEdgeStyle;rounded=0;orthogonalLoop=1;jettySize=auto;html=1;exitX=1;exitY=0.5;exitDx=0;exitDy=0;exitPerimeter=0;entryX=0;entryY=0.5;entryDx=0;entryDy=0;" edge="1" parent="1" source="VnJmP2dUm73nQAp3kCWq-4" target="VnJmP2dUm73nQAp3kCWq-2">
          <mxGeometry relative="1" as="geometry" />
        </mxCell>
        <mxCell id="VnJmP2dUm73nQAp3kCWq-4" value="开始" style="strokeWidth=2;html=1;shape=mxgraph.flowchart.start_1;whiteSpace=wrap;" parent="1" vertex="1">
          <mxGeometry x="60" y="130" width="100" height="60" as="geometry" />
        </mxCell>
        <mxCell id="4c2e-EeaPmxIaRiaBZTg-6" style="edgeStyle=orthogonalEdgeStyle;rounded=0;orthogonalLoop=1;jettySize=auto;html=1;exitX=0.5;exitY=1;exitDx=0;exitDy=0;exitPerimeter=0;entryX=0.5;entryY=0;entryDx=0;entryDy=0;" edge="1" parent="1" source="VnJmP2dUm73nQAp3kCWq-11" target="4c2e-EeaPmxIaRiaBZTg-5">
          <mxGeometry relative="1" as="geometry" />
        </mxCell>
        <mxCell id="4c2e-EeaPmxIaRiaBZTg-11" value="否" style="edgeLabel;html=1;align=center;verticalAlign=middle;resizable=0;points=[];" vertex="1" connectable="0" parent="4c2e-EeaPmxIaRiaBZTg-6">
          <mxGeometry x="-0.2" y="-1" relative="1" as="geometry">
            <mxPoint as="offset" />
          </mxGeometry>
        </mxCell>
        <mxCell id="4c2e-EeaPmxIaRiaBZTg-17" style="edgeStyle=orthogonalEdgeStyle;rounded=0;orthogonalLoop=1;jettySize=auto;html=1;exitX=1;exitY=0.5;exitDx=0;exitDy=0;exitPerimeter=0;entryX=1;entryY=0.5;entryDx=0;entryDy=0;entryPerimeter=0;" edge="1" parent="1" source="VnJmP2dUm73nQAp3kCWq-11" target="4c2e-EeaPmxIaRiaBZTg-2">
          <mxGeometry relative="1" as="geometry">
            <Array as="points">
              <mxPoint x="380" y="265" />
              <mxPoint x="380" y="470" />
            </Array>
          </mxGeometry>
        </mxCell>
        <mxCell id="4c2e-EeaPmxIaRiaBZTg-18" value="是" style="edgeLabel;html=1;align=center;verticalAlign=middle;resizable=0;points=[];" vertex="1" connectable="0" parent="4c2e-EeaPmxIaRiaBZTg-17">
          <mxGeometry x="-0.2444" y="-2" relative="1" as="geometry">
            <mxPoint as="offset" />
          </mxGeometry>
        </mxCell>
        <mxCell id="VnJmP2dUm73nQAp3kCWq-11" value="是否是最后一条" style="strokeWidth=2;html=1;shape=mxgraph.flowchart.decision;whiteSpace=wrap;" parent="1" vertex="1">
          <mxGeometry x="235" y="230" width="90" height="70" as="geometry" />
        </mxCell>
        <mxCell id="4c2e-EeaPmxIaRiaBZTg-2" value="结束" style="strokeWidth=2;html=1;shape=mxgraph.flowchart.start_1;whiteSpace=wrap;" vertex="1" parent="1">
          <mxGeometry x="225" y="440" width="100" height="60" as="geometry" />
        </mxCell>
        <mxCell id="4c2e-EeaPmxIaRiaBZTg-8" style="edgeStyle=orthogonalEdgeStyle;rounded=0;orthogonalLoop=1;jettySize=auto;html=1;exitX=0;exitY=0.5;exitDx=0;exitDy=0;entryX=1;entryY=0.5;entryDx=0;entryDy=0;entryPerimeter=0;" edge="1" parent="1" source="4c2e-EeaPmxIaRiaBZTg-5" target="4c2e-EeaPmxIaRiaBZTg-7">
          <mxGeometry relative="1" as="geometry" />
        </mxCell>
        <mxCell id="4c2e-EeaPmxIaRiaBZTg-5" value="获取当日公众号研报列表" style="shape=parallelogram;perimeter=parallelogramPerimeter;whiteSpace=wrap;html=1;fixedSize=1;" vertex="1" parent="1">
          <mxGeometry x="220" y="340" width="120" height="60" as="geometry" />
        </mxCell>
        <mxCell id="4c2e-EeaPmxIaRiaBZTg-12" style="edgeStyle=orthogonalEdgeStyle;rounded=0;orthogonalLoop=1;jettySize=auto;html=1;exitX=0.5;exitY=0;exitDx=0;exitDy=0;exitPerimeter=0;entryX=0;entryY=0.5;entryDx=0;entryDy=0;entryPerimeter=0;" edge="1" parent="1" source="4c2e-EeaPmxIaRiaBZTg-7" target="VnJmP2dUm73nQAp3kCWq-11">
          <mxGeometry relative="1" as="geometry" />
        </mxCell>
        <mxCell id="4c2e-EeaPmxIaRiaBZTg-13" value="是" style="edgeLabel;html=1;align=center;verticalAlign=middle;resizable=0;points=[];" vertex="1" connectable="0" parent="4c2e-EeaPmxIaRiaBZTg-12">
          <mxGeometry x="0.1333" relative="1" as="geometry">
            <mxPoint as="offset" />
          </mxGeometry>
        </mxCell>
        <mxCell id="4c2e-EeaPmxIaRiaBZTg-15" style="edgeStyle=orthogonalEdgeStyle;rounded=0;orthogonalLoop=1;jettySize=auto;html=1;exitX=0;exitY=0.5;exitDx=0;exitDy=0;exitPerimeter=0;entryX=1;entryY=0.5;entryDx=0;entryDy=0;" edge="1" parent="1" source="4c2e-EeaPmxIaRiaBZTg-7" target="4c2e-EeaPmxIaRiaBZTg-14">
          <mxGeometry relative="1" as="geometry" />
        </mxCell>
        <mxCell id="4c2e-EeaPmxIaRiaBZTg-7" value="是否是最后一条" style="strokeWidth=2;html=1;shape=mxgraph.flowchart.decision;whiteSpace=wrap;" vertex="1" parent="1">
          <mxGeometry x="80" y="335" width="90" height="70" as="geometry" />
        </mxCell>
        <mxCell id="4c2e-EeaPmxIaRiaBZTg-20" style="edgeStyle=orthogonalEdgeStyle;rounded=0;orthogonalLoop=1;jettySize=auto;html=1;exitX=0.5;exitY=1;exitDx=0;exitDy=0;" edge="1" parent="1" source="4c2e-EeaPmxIaRiaBZTg-14" target="4c2e-EeaPmxIaRiaBZTg-16">
          <mxGeometry relative="1" as="geometry" />
        </mxCell>
        <mxCell id="4c2e-EeaPmxIaRiaBZTg-14" value="将页面原始数据写入到数据湖" style="shape=parallelogram;perimeter=parallelogramPerimeter;whiteSpace=wrap;html=1;fixedSize=1;" vertex="1" parent="1">
          <mxGeometry x="-80" y="340" width="120" height="60" as="geometry" />
        </mxCell>
        <mxCell id="4c2e-EeaPmxIaRiaBZTg-21" style="edgeStyle=orthogonalEdgeStyle;rounded=0;orthogonalLoop=1;jettySize=auto;html=1;exitX=1;exitY=0.5;exitDx=0;exitDy=0;entryX=0.5;entryY=1;entryDx=0;entryDy=0;entryPerimeter=0;" edge="1" parent="1" source="4c2e-EeaPmxIaRiaBZTg-16" target="4c2e-EeaPmxIaRiaBZTg-7">
          <mxGeometry relative="1" as="geometry" />
        </mxCell>
        <mxCell id="4c2e-EeaPmxIaRiaBZTg-16" value="将研报相关信息写入到DeltaLake中Bronze层的行业研究报告原始数据表中" style="shape=parallelogram;perimeter=parallelogramPerimeter;whiteSpace=wrap;html=1;fixedSize=1;" vertex="1" parent="1">
          <mxGeometry x="-80" y="430" width="120" height="60" as="geometry" />
        </mxCell>
      </root>
    </mxGraphModel>
  </diagram>
</mxfile>
